<svg id="Layer_1" data-name="Layer 1" xmlns="http://www.w3.org/2000/svg" viewBox="0 0 213.51 90.66"><defs><style>.cls-1{fill:#005a99;}.cls-2{fill:#00898a;}.cls-3{fill:#fff;}</style></defs><path class="cls-1" d="M67.47,46.08a20.9,20.9,0,0,0-6.15-14.85,21.74,21.74,0,0,0-2.49-2.13l-3.29,5.52a14.68,14.68,0,0,1,5.9,11.46A15,15,0,0,1,41,60l-3,5.27A21,21,0,0,0,67.47,46.08Z"/><path class="cls-2" d="M62.13,8.05a30.1,30.1,0,0,0-.55-5.44L61.47,2,61,2.43a31,31,0,0,0-3.76,4.08c-6.21,8-9.37,18.68-7.51,25.42l0,.2.2,0a10.57,10.57,0,0,1,1.11.28c.4.13.81.29,1.2.46l.18.09.16-.12C58.28,28.5,62.26,18.07,62.13,8.05Z"/><path class="cls-2" d="M40.74.46,40.39,0l-.22.54a32.47,32.47,0,0,0-1.56,5.32c-2,9.92-.14,20.9,4.5,26.13l.14.15.19,0c.39-.1.76-.18,1.12-.24a10.87,10.87,0,0,1,1.28-.11H46l.09-.18c3.1-6.4,2-17.52-2.49-26.44A30.14,30.14,0,0,0,40.74.46Z"/><path class="cls-2" d="M25.75,10.64A30.5,30.5,0,0,0,21.1,7.75l-.52-.26.05.59a30.11,30.11,0,0,0,.95,5.46C24.13,23.33,30.69,32.35,37.16,35l.19.07.16-.13a10.62,10.62,0,0,1,.89-.71,11.12,11.12,0,0,1,1.1-.67l.18-.09v-.2C39.63,26.14,33.77,16.63,25.75,10.64Z"/><path class="cls-2" d="M9.69,28C16.31,35.61,26.18,40.8,33.15,40.3h.21l.08-.19a7.59,7.59,0,0,1,.49-1A9.53,9.53,0,0,1,34.62,38l.12-.16-.09-.18C31.46,31.28,22,25.34,12.15,23.51A30,30,0,0,0,6.71,23H6.12l.3.5A32.43,32.43,0,0,0,9.69,28Z"/><path class="cls-2" d="M31.9,46.84l.18-.1v-.21a11,11,0,0,1,0-1.14,10.89,10.89,0,0,1,.14-1.28l0-.2-.17-.12c-5.67-4.29-16.78-5.44-26.41-2.73A31.24,31.24,0,0,0,.52,43L0,43.25l.49.32A32.38,32.38,0,0,0,5.4,46.15C14.73,50.08,25.87,50.37,31.9,46.84Z"/><path class="cls-2" d="M33.54,53.39l.11-.17-.1-.18A10.93,10.93,0,0,1,33,52a10.28,10.28,0,0,1-.44-1.21l-.06-.19-.19,0c-7-1.34-17.46,2.54-24.9,9.24a30.85,30.85,0,0,0-3.75,4l-.35.47.58.06a30.61,30.61,0,0,0,5.54.14C19.56,63.89,29.69,59.22,33.54,53.39Z"/><path class="cls-2" d="M36.9,57.43c-.32-.28-.64-.58-.93-.89l-.14-.15-.19,0c-6.86,1.89-14.53,10-18.25,19.3A30.42,30.42,0,0,0,15.8,81l-.11.58.55-.2a31.27,31.27,0,0,0,5-2.33C30.07,74,37.09,65.36,38,58.43l0-.21-.17-.11C37.48,57.88,37.18,57.66,36.9,57.43Z"/><path class="cls-1" d="M86.25,52.39a30.21,30.21,0,0,0,4.51-1.47c.17-1.59.16-5.67.14-6.13a31.59,31.59,0,0,0-4.25-1.74A48.7,48.7,0,0,0,77,41.55a14.89,14.89,0,0,0-.72-3.24,47.29,47.29,0,0,0,8.19-5.4,29.38,29.38,0,0,0,3.15-3.35A43.66,43.66,0,0,0,85,24a30.84,30.84,0,0,0-4.48.5,48.55,48.55,0,0,0-9.18,3.19,15,15,0,0,0-2.17-2.52,46.43,46.43,0,0,0,4.7-8.61A28,28,0,0,0,75,12.24a45,45,0,0,0-4.08-3l-9.6,16.61a25.83,25.83,0,0,1,2.94,2.51A25.12,25.12,0,0,1,36.31,69.05L26.65,85.8a47.47,47.47,0,0,0,4.56,2,31.4,31.4,0,0,0,2.86-3,48.31,48.31,0,0,0,5-8.35,14.89,14.89,0,0,0,3.28.54,47,47,0,0,0,1.93,9.62,31.64,31.64,0,0,0,1.79,4.13c.13,0,4.45-.14,6.42-.41A34.48,34.48,0,0,0,53.61,86a47.63,47.63,0,0,0,.49-9.72,14.43,14.43,0,0,0,3.15-1.06,47.45,47.45,0,0,0,6.22,7.59,32.45,32.45,0,0,0,3.63,2.75,44.79,44.79,0,0,0,5.42-3.34,33.11,33.11,0,0,0-1.08-4.31,47.59,47.59,0,0,0-4.13-8.8,14.65,14.65,0,0,0,2.28-2.42,47.15,47.15,0,0,0,9.06,3.78,32.86,32.86,0,0,0,4.58.79,45.64,45.64,0,0,0,3.18-5.41,35.65,35.65,0,0,0-3-3.45,47.93,47.93,0,0,0-7.79-5.83,14.71,14.71,0,0,0,.89-3.21A46.28,46.28,0,0,0,86.25,52.39Z"/><path class="cls-3" d="M47.18,49.27v9.49H41.93V34h7.21q5,0,7.46,1.83A6.54,6.54,0,0,1,59,41.44a6.56,6.56,0,0,1-1.2,3.88A8,8,0,0,1,54.42,48Q60,56.33,61.7,58.76H55.88L50,49.27Zm0-4.26h1.69a6.49,6.49,0,0,0,3.67-.83,3,3,0,0,0,1.19-2.61,2.71,2.71,0,0,0-1.21-2.5,7.32,7.32,0,0,0-3.75-.75H47.18Z"/><path class="cls-3" d="M73,59.1a9.79,9.79,0,0,1-7.15-2.52q-2.56-2.52-2.57-7.14c0-3.17.8-5.62,2.38-7.35a8.48,8.48,0,0,1,6.57-2.6,8.31,8.31,0,0,1,6.25,2.29,8.62,8.62,0,0,1,2.23,6.31v2.5H68.48A5,5,0,0,0,69.78,54a4.62,4.62,0,0,0,3.42,1.23,14.54,14.54,0,0,0,3.23-.35,16.1,16.1,0,0,0,3.18-1.14v4a12,12,0,0,1-2.89,1A18.18,18.18,0,0,1,73,59.1Zm-.73-15.94a3.27,3.27,0,0,0-2.57,1,4.84,4.84,0,0,0-1.07,3h7.24a4.28,4.28,0,0,0-1-3A3.38,3.38,0,0,0,72.24,43.16Z"/><path class="cls-3" d="M95.27,59.1A6.24,6.24,0,0,1,90,56.68h-.27c.18,1.58.27,2.5.27,2.74v7.67H84.88V39.85h4.19l.73,2.45H90a6,6,0,0,1,5.36-2.81,6.14,6.14,0,0,1,5.25,2.59,12,12,0,0,1,1.89,7.19,14,14,0,0,1-.89,5.26,7.28,7.28,0,0,1-2.53,3.4A6.46,6.46,0,0,1,95.27,59.1ZM93.74,43.62A3.25,3.25,0,0,0,91,44.8,6.75,6.75,0,0,0,90,48.68v.56a8,8,0,0,0,.9,4.36,3.24,3.24,0,0,0,2.87,1.32c2.31,0,3.47-1.9,3.47-5.72A8.14,8.14,0,0,0,96.43,45,2.93,2.93,0,0,0,93.74,43.62Z"/><path class="cls-3" d="M124,49.27a10.16,10.16,0,0,1-2.44,7.23,8.84,8.84,0,0,1-6.78,2.6A9.56,9.56,0,0,1,110,57.91a8,8,0,0,1-3.2-3.43,11.55,11.55,0,0,1-1.11-5.21c0-3.09.8-5.49,2.42-7.21a8.89,8.89,0,0,1,6.8-2.57,9.52,9.52,0,0,1,4.8,1.19,7.86,7.86,0,0,1,3.2,3.4A11.31,11.31,0,0,1,124,49.27Zm-13.08,0a8,8,0,0,0,.92,4.25,3.3,3.3,0,0,0,3,1.44,3.25,3.25,0,0,0,3-1.43,8,8,0,0,0,.91-4.26,7.78,7.78,0,0,0-.92-4.21,3.87,3.87,0,0,0-6,0A7.8,7.8,0,0,0,110.92,49.27Z"/><path class="cls-3" d="M138.82,39.49a8.4,8.4,0,0,1,1.74.15l-.39,4.84a6,6,0,0,0-1.52-.17,5.5,5.5,0,0,0-3.85,1.27,4.6,4.6,0,0,0-1.38,3.56v9.62h-5.16V39.85h3.91l.76,3.18h.25a7.17,7.17,0,0,1,2.38-2.57A6,6,0,0,1,138.82,39.49Z"/><path class="cls-3" d="M152,55a11.4,11.4,0,0,0,3.25-.59v3.84a11.71,11.71,0,0,1-4.74.86A5.8,5.8,0,0,1,146,57.54a6.84,6.84,0,0,1-1.41-4.7V43.72h-2.48V41.54l2.85-1.73,1.49-4h3.3v4H155v3.87h-5.29v9.12a2,2,0,0,0,.61,1.63A2.46,2.46,0,0,0,152,55Z"/><path class="cls-3" d="M176.5,58.76h-5.16v-11a5.29,5.29,0,0,0-.73-3.07,2.63,2.63,0,0,0-2.31-1,3.46,3.46,0,0,0-3.13,1.45,8.87,8.87,0,0,0-1,4.79v8.9H159V39.85H163l.7,2.42H164a5.47,5.47,0,0,1,2.38-2.08,8.22,8.22,0,0,1,3.44-.7,6.62,6.62,0,0,1,5,1.79,7.15,7.15,0,0,1,1.71,5.15Z"/><path class="cls-3" d="M190.38,59.1a9.75,9.75,0,0,1-7.14-2.52q-2.58-2.52-2.58-7.14c0-3.17.8-5.62,2.38-7.35a8.49,8.49,0,0,1,6.58-2.6,8.31,8.31,0,0,1,6.24,2.29,8.62,8.62,0,0,1,2.23,6.31v2.5h-12.2A5,5,0,0,0,187.2,54a4.58,4.58,0,0,0,3.41,1.23,14.54,14.54,0,0,0,3.23-.35A16.41,16.41,0,0,0,197,53.77v4a12.27,12.27,0,0,1-2.9,1A18.18,18.18,0,0,1,190.38,59.1Zm-.73-15.94a3.27,3.27,0,0,0-2.57,1,4.84,4.84,0,0,0-1.07,3h7.24a4.28,4.28,0,0,0-1-3A3.38,3.38,0,0,0,189.65,43.16Z"/><path class="cls-3" d="M210.26,55a11.4,11.4,0,0,0,3.25-.59v3.84a11.71,11.71,0,0,1-4.74.86,5.8,5.8,0,0,1-4.51-1.56,6.84,6.84,0,0,1-1.41-4.7V43.72h-2.47V41.54l2.84-1.73,1.49-4H208v4h5.29v3.87H208v9.12a2,2,0,0,0,.62,1.63A2.42,2.42,0,0,0,210.26,55Z"/></svg>